<svg width="24" height="27" viewBox="0 0 24 27" fill="none" xmlns="http://www.w3.org/2000/svg">
<g opacity="0.8">
<path d="M12.001 1.68799C9.81374 1.69089 7.71682 2.66967 6.1702 4.40961C4.62359 6.14955 3.75357 8.50859 3.75099 10.9692C3.74837 12.9801 4.33222 14.9364 5.41299 16.538C5.41299 16.538 5.63799 16.8713 5.67474 16.9194L12.001 25.313L18.3302 16.9151C18.3632 16.8704 18.589 16.538 18.589 16.538L18.5897 16.5355C19.67 14.9345 20.2535 12.9792 20.251 10.9692C20.2484 8.50859 19.3784 6.14955 17.8318 4.40961C16.2851 2.66967 14.1882 1.69089 12.001 1.68799ZM12.001 14.3442C11.4076 14.3442 10.8276 14.1463 10.3343 13.7754C9.84093 13.4046 9.45641 12.8775 9.22935 12.2608C9.00228 11.6441 8.94287 10.9655 9.05863 10.3108C9.17439 9.65612 9.46011 9.05475 9.87966 8.58275C10.2992 8.11075 10.8338 7.78931 11.4157 7.65909C11.9977 7.52886 12.6009 7.5957 13.149 7.85114C13.6972 8.10659 14.1657 8.53917 14.4954 9.09419C14.825 9.6492 15.001 10.3017 15.001 10.9692C15 11.864 14.6836 12.7218 14.1212 13.3545C13.5588 13.9872 12.7963 14.3431 12.001 14.3442Z" fill="white"/>
</g>
</svg>
