<svg xmlns="http://www.w3.org/2000/svg" width="45" height="42" viewBox="0 0 45 42" fill="none">
  <path d="M20.8061 4.25333C20.6367 4.6841 20.5455 5.14154 20.5455 5.61538C20.5455 6.46462 21.4211 7.15385 22.5 7.15385H34.2273C34.7457 7.15385 35.2428 6.99176 35.6093 6.70324C35.9759 6.41472 36.1818 6.02341 36.1818 5.61538C36.182 5.15366 36.0941 4.69453 35.9212 4.25333M20.8061 4.25333C21.1762 3.31118 21.9198 2.48704 22.9281 1.90162C23.9363 1.31619 25.1562 1.00023 26.4091 1H30.3182C32.9555 1 35.1837 2.37026 35.9212 4.25333M20.8061 4.25333C19.8262 4.30051 18.8515 4.3559 17.8768 4.41744C14.9294 4.61026 12.7273 6.58564 12.7273 8.91385V13.3077M35.9212 4.25333C36.9011 4.30051 37.8758 4.3559 38.8504 4.41744C41.7979 4.61026 44 6.58564 44 8.91385V30.2308C44 31.4548 43.3822 32.6288 42.2826 33.4943C41.1829 34.3599 39.6915 34.8462 38.1364 34.8462H32.2727M12.7273 13.3077H3.93182C2.31345 13.3077 1 14.3415 1 15.6154V38.6923C1 39.9662 2.31345 41 3.93182 41H29.3409C30.9593 41 32.2727 39.9662 32.2727 38.6923V34.8462M12.7273 13.3077H29.3409C30.9593 13.3077 32.2727 14.3415 32.2727 15.6154V34.8462M10.7727 28.6923L14.6818 31.7692L22.5 24.0769" stroke="#33B672" stroke-width="2" stroke-linecap="round" stroke-linejoin="round"/>
</svg>
