<svg xmlns="http://www.w3.org/2000/svg" width="45" height="39" viewBox="0 0 45 39" fill="none">
  <path d="M1 28.75L12.3763 16.0245C12.837 15.5091 13.3839 15.1003 13.9859 14.8214C14.5879 14.5424 15.2331 14.3989 15.8846 14.3989C16.5362 14.3989 17.1814 14.5424 17.7833 14.8214C18.3853 15.1003 18.9323 15.5091 19.393 16.0245L30.7692 28.75M27.4615 25.05L30.5686 21.5745C31.0293 21.0591 31.5762 20.6503 32.1782 20.3714C32.7802 20.0924 33.4254 19.9489 34.0769 19.9489C34.7285 19.9489 35.3737 20.0924 35.9756 20.3714C36.5776 20.6503 37.1246 21.0591 37.5853 21.5745L44 28.75M4.30769 38H40.6923C41.5696 38 42.4109 37.6102 43.0312 36.9163C43.6515 36.2224 44 35.2813 44 34.3V4.7C44 3.7187 43.6515 2.77759 43.0312 2.0837C42.4109 1.38982 41.5696 1 40.6923 1H4.30769C3.43044 1 2.58911 1.38982 1.9688 2.0837C1.34849 2.77759 1 3.7187 1 4.7V34.3C1 35.2813 1.34849 36.2224 1.9688 36.9163C2.58911 37.6102 3.43044 38 4.30769 38ZM27.4615 10.25H27.4792V10.2697H27.4615V10.25ZM28.2885 10.25C28.2885 10.4953 28.2013 10.7306 28.0463 10.9041C27.8912 11.0775 27.6809 11.175 27.4615 11.175C27.2422 11.175 27.0319 11.0775 26.8768 10.9041C26.7217 10.7306 26.6346 10.4953 26.6346 10.25C26.6346 10.0047 26.7217 9.7694 26.8768 9.59593C27.0319 9.42246 27.2422 9.325 27.4615 9.325C27.6809 9.325 27.8912 9.42246 28.0463 9.59593C28.2013 9.7694 28.2885 10.0047 28.2885 10.25Z" stroke="#33B672" stroke-width="2" stroke-linecap="round" stroke-linejoin="round"/>
</svg>
