<svg width="21" height="21" viewBox="0 0 21 21" fill="none" xmlns="http://www.w3.org/2000/svg">
<path fill-rule="evenodd" clip-rule="evenodd" d="M10.014 18.0305C14.4385 18.0305 18.0252 14.4438 18.0252 10.0194C18.0252 5.595 14.4385 2.0083 10.014 2.0083C5.58963 2.0083 2.00293 5.595 2.00293 10.0194C2.00293 14.4438 5.58963 18.0305 10.014 18.0305ZM11.0154 6.01386C11.0154 5.4608 10.5671 5.01247 10.014 5.01247C9.46099 5.01247 9.01265 5.4608 9.01265 6.01386V10.0194C9.01265 10.285 9.11816 10.5397 9.30595 10.7275L12.1383 13.5599C12.5294 13.9509 13.1634 13.9509 13.5545 13.5599C13.9456 13.1688 13.9456 12.5347 13.5545 12.1437L11.0154 9.60462V6.01386Z" fill="white" fill-opacity="0.8"/>
</svg>
