<svg width="21" height="25" viewBox="0 0 21 25" fill="none" xmlns="http://www.w3.org/2000/svg">
<path d="M2.00593 7.33657L10.014 12.1737L18.0221 7.33657C17.9925 6.72006 17.7689 6.14057 17.3971 5.71679C17.0253 5.29302 16.5335 5.05702 16.0224 5.05713H4.00571C3.49458 5.05702 3.00276 5.29302 2.63098 5.71679C2.25919 6.14057 2.03558 6.72006 2.00593 7.33657Z" fill="white" fill-opacity="0.8"/>
<path d="M18.0252 10.0395L10.014 14.879L2.00293 10.0395V17.1561C2.00293 17.7978 2.21394 18.4133 2.58953 18.8671C2.96512 19.3209 3.47454 19.5758 4.00571 19.5758H16.0224C16.5535 19.5758 17.063 19.3209 17.4385 18.8671C17.8141 18.4133 18.0252 17.7978 18.0252 17.1561V10.0395Z" fill="white" fill-opacity="0.8"/>
</svg>
