<svg width="21" height="25" viewBox="0 0 21 25" fill="none" xmlns="http://www.w3.org/2000/svg">
<path d="M2.00293 4.05267C2.00293 3.38446 2.45127 2.84277 3.00432 2.84277H5.16018C5.6497 2.84277 6.06747 3.27037 6.14795 3.85376L6.88828 9.22069C6.96056 9.74461 6.74156 10.2642 6.34836 10.5018L4.79807 11.4383C5.91592 14.7945 8.13311 17.4733 10.9109 18.8239L11.6861 16.9508C11.8827 16.4758 12.3127 16.2112 12.7464 16.2985L17.1884 17.193C17.6712 17.2902 18.0252 17.795 18.0252 18.3864V20.9912C18.0252 21.6594 17.5768 22.2011 17.0238 22.2011H15.021C7.83131 22.2011 2.00293 15.1591 2.00293 6.47245V4.05267Z" fill="white" fill-opacity="0.8"/>
</svg>
