<svg width="25" height="27" viewBox="0 0 25 27" fill="none" xmlns="http://www.w3.org/2000/svg">
<path d="M7.25 9.07692V7.30769C7.25 5.9 7.80312 4.54997 8.78769 3.55459C9.77226 2.5592 11.1076 2 12.5 2C13.8924 2 15.2277 2.5592 16.2123 3.55459C17.1969 4.54997 17.75 5.9 17.75 7.30769V9.07692M2.875 9.07692C2.64294 9.07692 2.42038 9.17012 2.25628 9.33602C2.09219 9.50192 2 9.72692 2 9.96154V21.9038C2 23.5758 3.40875 25 5.0625 25H19.9375C21.5912 25 23 23.6449 23 21.973V9.96154C23 9.72692 22.9078 9.50192 22.7437 9.33602C22.5796 9.17012 22.3571 9.07692 22.125 9.07692H2.875Z" stroke="#1E1E1E" stroke-width="3" stroke-linecap="round" stroke-linejoin="round"/>
</svg>
