<svg width="33" height="34" viewBox="0 0 33 34" fill="none" xmlns="http://www.w3.org/2000/svg">
<path fill-rule="evenodd" clip-rule="evenodd" d="M16.5 5.66675C13.4612 5.66675 11 8.20258 11 11.3334C11 14.4642 13.4612 17.0001 16.5 17.0001C19.5387 17.0001 22 14.4642 22 11.3334C22 8.20258 19.5387 5.66675 16.5 5.66675ZM19.25 11.3334C19.25 9.77508 18.0125 8.50008 16.5 8.50008C14.9875 8.50008 13.75 9.77508 13.75 11.3334C13.75 12.8917 14.9875 14.1667 16.5 14.1667C18.0125 14.1667 19.25 12.8917 19.25 11.3334ZM24.75 24.0834C24.475 23.0776 20.2125 21.2501 16.5 21.2501C12.7875 21.2501 8.525 23.0776 8.25 24.0976V25.5001H24.75V24.0834ZM5.5 24.0834C5.5 20.3151 12.8287 18.4167 16.5 18.4167C20.1713 18.4167 27.5 20.3151 27.5 24.0834V28.3334H5.5V24.0834Z" fill="white"/>
</svg>
