<svg width="45" height="39" viewBox="0 0 45 39" fill="none" xmlns="http://www.w3.org/2000/svg">
<g id="Icons/search_24px">
<path id="icon" fill-rule="evenodd" clip-rule="evenodd" d="M27.1579 21.5638L37.7009 30.875L34.9594 33.2963L24.4164 23.985C22.4477 25.2363 20.0741 26 17.4798 26C10.8743 26 5.52002 21.2713 5.52002 15.4375C5.52002 9.60375 10.8743 4.875 17.4798 4.875C24.0852 4.875 29.4395 9.60375 29.4395 15.4375C29.4395 17.7288 28.5747 19.825 27.1579 21.5638ZM17.4798 8.125C12.8983 8.125 9.19994 11.3913 9.19994 15.4375C9.19994 19.4838 12.8983 22.75 17.4798 22.75C22.0613 22.75 25.7596 19.4838 25.7596 15.4375C25.7596 11.3913 22.0613 8.125 17.4798 8.125Z" fill="#585858" fill-opacity="0.5"/>
</g>
</svg>
